<svg id="Layer_1" data-name="Layer 1" xmlns="http://www.w3.org/2000/svg" viewBox="0 0 15.9 12.85"><path class="cls-1" d="M14.06,3.48A3.2,3.2,0,0,0,15.48,1.7a7.18,7.18,0,0,1-2.09.79,3.3,3.3,0,0,0-2.38-1A3.25,3.25,0,0,0,7.77,4.71a2.58,2.58,0,0,0,.1.73A9.28,9.28,0,0,1,1.15,2,3.39,3.39,0,0,0,.71,3.65,3.24,3.24,0,0,0,2.17,6.36,3.83,3.83,0,0,1,.68,6V6A3.27,3.27,0,0,0,3.3,9.21a3.61,3.61,0,0,1-.86.1,4.06,4.06,0,0,1-.63-.07,3.24,3.24,0,0,0,3,2.25,6.63,6.63,0,0,1-4,1.39,5.62,5.62,0,0,1-.76,0,9.21,9.21,0,0,0,5,1.46A9.21,9.21,0,0,0,14.33,5V4.61A6,6,0,0,0,15.95,3,7.26,7.26,0,0,1,14.06,3.48Z" transform="translate(-0.05 -1.46)"/></svg>