<svg id="Layer_1" data-name="Layer 1" xmlns="http://www.w3.org/2000/svg" viewBox="0 0 15.9 11.23"><path class="cls-1" d="M15.8,4.61A3.68,3.68,0,0,0,15.17,3a2.25,2.25,0,0,0-1.59-.66C11.36,2.19,8,2.19,8,2.19H8s-3.35,0-5.57.17A2.25,2.25,0,0,0,.86,3,3.68,3.68,0,0,0,.23,4.61,23.29,23.29,0,0,0,.06,7.2V8.39A23.29,23.29,0,0,0,.23,11a3.68,3.68,0,0,0,.63,1.59,2.72,2.72,0,0,0,1.76.7c1.26.13,5.4.17,5.4.17s3.35,0,5.57-.17a2.25,2.25,0,0,0,1.59-.66A3.68,3.68,0,0,0,15.8,11,23.29,23.29,0,0,0,16,8.42V7.23A23.49,23.49,0,0,0,15.8,4.61ZM6.36,9.85V5.37l4.31,2.25Z" transform="translate(-0.06 -2.19)"/></svg>