<svg id="Layer_1" data-name="Layer 1" xmlns="http://www.w3.org/2000/svg" viewBox="0 0 15 15"><path class="cls-1" d="M15.46,5a4.48,4.48,0,0,0-1.21-3.15A4.48,4.48,0,0,0,11.09.65c-.8,0-1.06,0-3.09,0s-2.29,0-3.09,0A4.48,4.48,0,0,0,1.76,1.86,4.48,4.48,0,0,0,.54,5c0,.8,0,1.06,0,3.09s0,2.29,0,3.09a4.48,4.48,0,0,0,1.21,3.15,4.48,4.48,0,0,0,3.15,1.21c.8,0,1.06,0,3.09,0s2.29,0,3.09,0a4.48,4.48,0,0,0,3.15-1.21,4.48,4.48,0,0,0,1.21-3.15c0-.8,0-1.06,0-3.09S15.49,5.81,15.46,5ZM12,3A1.11,1.11,0,1,1,10.89,4.1,1.11,1.11,0,0,1,12,3ZM8,5.61a2.5,2.5,0,1,1-2.5,2.5A2.5,2.5,0,0,1,8,5.61Zm6.11,5.53a3.21,3.21,0,0,1-.82,2.26,3.21,3.21,0,0,1-2.26.82c-.79,0-1,0-3,0s-2.24,0-3,0a3.21,3.21,0,0,1-2.26-.82,3.21,3.21,0,0,1-.82-2.26c0-.79,0-1,0-3,0-.51,0-.91,0-1.23H4.37a3.81,3.81,0,0,0-.22,1.23,3.85,3.85,0,1,0,7.7,0,3.81,3.81,0,0,0-.22-1.23h2.51c0,.32,0,.71,0,1.23C14.15,10.11,14.14,10.35,14.11,11.14Z" transform="translate(-0.5 -0.61)"/></svg>