<svg id="Layer_1" data-name="Layer 1" xmlns="http://www.w3.org/2000/svg" viewBox="0 0 22.72 27.37"><path class="cls-1" d="M27.71,28.86H26.35V15.51a1.27,1.27,0,0,0-1.27-1.27H17.84a1.27,1.27,0,0,0-1.27,1.27v4.91H10.95a1.27,1.27,0,0,0-1.27,1.27v7.16H7.29a1,1,0,0,0-1.15.88,1,1,0,0,0,1.15.88H27.71a1,1,0,0,0,1.15-.88A1,1,0,0,0,27.71,28.86ZM12.36,26.77a.63.63,0,0,1-.63.63h-.39a.63.63,0,0,1-.63-.63v-.43a.63.63,0,0,1,.63-.63h.39a.63.63,0,0,1,.63.63Zm0-2.95a.63.63,0,0,1-.63.63h-.39a.63.63,0,0,1-.63-.63v-.43a.63.63,0,0,1,.63-.63h.39a.63.63,0,0,1,.63.63Zm3,5v.59H13.75v-3.3a.44.44,0,0,1,.44-.44H15a.44.44,0,0,1,.44.44Zm0-5a.63.63,0,0,1-.63.63h-.39a.63.63,0,0,1-.63-.63v-.43a.63.63,0,0,1,.63-.63h.39a.63.63,0,0,1,.63.63Zm3.85,2.7a.63.63,0,0,1-.63.63h-.41a.62.62,0,0,1-.61-.62v-.43a.65.65,0,0,1,.63-.63h.39a.63.63,0,0,1,.63.63Zm0-3a.63.63,0,0,1-.63.63h-.4a.63.63,0,0,1-.62-.62v-.43a.66.66,0,0,1,.63-.63h.39a.63.63,0,0,1,.63.63Zm0-3a.61.61,0,0,1-.09.3.62.62,0,0,1-.54.33h-.39a.63.63,0,0,1-.63-.63v-.43a.63.63,0,0,1,.63-.63h.39a.63.63,0,0,1,.63.63Zm0-2.95a.63.63,0,0,1-.63.63h-.39a.63.63,0,0,1-.63-.63v-.43a.63.63,0,0,1,.63-.63h.39a.63.63,0,0,1,.63.63Zm3,8.93a.63.63,0,0,1-.63.63h-.39a.63.63,0,0,1-.63-.63v-.43a.63.63,0,0,1,.63-.63h.39a.63.63,0,0,1,.63.63Zm0-3a.63.63,0,0,1-.63.63h-.39a.63.63,0,0,1-.63-.63v-.43a.63.63,0,0,1,.63-.63h.39a.63.63,0,0,1,.63.63Zm0-3a.63.63,0,0,1-.63.63h-.39a.63.63,0,0,1-.63-.63v-.43a.63.63,0,0,1,.63-.63h.39a.63.63,0,0,1,.63.63Zm0-3a.63.63,0,0,1-.63.63h-.39a.63.63,0,0,1-.63-.63v-.43a.63.63,0,0,1,.63-.63h.39a.63.63,0,0,1,.63.63Zm2.95,8.87a.63.63,0,0,1-.63.63h-.39a.63.63,0,0,1-.63-.63v-.43a.63.63,0,0,1,.63-.63h.39a.63.63,0,0,1,.63.63Zm0-3a.63.63,0,0,1-.63.63h-.39a.63.63,0,0,1-.63-.63v-.43a.63.63,0,0,1,.63-.63h.39a.63.63,0,0,1,.63.63Zm0-3a.63.63,0,0,1-.63.63h-.39a.63.63,0,0,1-.63-.63v-.43a.63.63,0,0,1,.63-.63h.39a.63.63,0,0,1,.63.63Zm0-2.95a.63.63,0,0,1-.63.63h-.39a.63.63,0,0,1-.63-.63v-.43a.63.63,0,0,1,.63-.63h.39a.63.63,0,0,1,.63.63Z" transform="translate(-6.14 -3.24)"/><path class="cls-1" d="M17.14,7.5a4.27,4.27,0,1,0-8.53,0C8.61,9.86,12.87,18,12.87,18S17.14,9.86,17.14,7.5Zm-6-.18a1.74,1.74,0,1,1,1.74,1.74A1.74,1.74,0,0,1,11.14,7.32Z" transform="translate(-6.14 -3.24)"/></svg>