<svg id="Layer_1" data-name="Layer 1" xmlns="http://www.w3.org/2000/svg" viewBox="0 0 32.73 32.09"><path class="cls-1" d="M32.86,31.79H28.35V14.61a1.27,1.27,0,0,0-1.27-1.27H21.73a4.09,4.09,0,0,0-3.22-4V5.44h4.16L20.82,7.65a1.41,1.41,0,0,0,.4.06h4.32V4.51a.78.78,0,0,0-.78-.78H22.67V2.24a.78.78,0,0,0-.78-.78h-5V9.33a4.08,4.08,0,0,0-3.35,4H8.22a1.27,1.27,0,0,0-1.27,1.27V31.79H2.43a.91.91,0,1,0,0,1.75H32.86a.91.91,0,1,0,0-1.75ZM12.81,28a.63.63,0,0,1-.63.63H9.83A.63.63,0,0,1,9.21,28V25.53a.63.63,0,0,1,.63-.63h2.35a.63.63,0,0,1,.63.63Zm0-6.45a.63.63,0,0,1-.63.63H9.83a.63.63,0,0,1-.63-.63V19.08a.63.63,0,0,1,.63-.63h2.35a.63.63,0,0,1,.63.63Zm6.64,10.28h-3.6V25.86a1,1,0,0,1,1-1H18.5a1,1,0,0,1,1,1Zm0-10.28a.63.63,0,0,1-.63.63H16.48a.63.63,0,0,1-.63-.63V19.08a.63.63,0,0,1,.63-.63h2.35a.63.63,0,0,1,.63.63Zm-1.8-5.09a3.08,3.08,0,0,1-.73-6.06,3.09,3.09,0,0,1,3.81,3A3.09,3.09,0,0,1,17.65,16.42ZM25.9,28a.63.63,0,0,1-.63.63H22.92A.63.63,0,0,1,22.3,28V25.53a.63.63,0,0,1,.63-.63h2.35a.63.63,0,0,1,.63.63Zm0-6.45a.63.63,0,0,1-.63.63H22.92a.63.63,0,0,1-.63-.63V19.08a.63.63,0,0,1,.63-.63h2.35a.63.63,0,0,1,.63.63Z" transform="translate(-1.29 -1.46)"/><path class="cls-2" d="M19.37,12.37a.5.5,0,0,0-.71,0l-.56.56-.63.63-.13.13-.13-.13-.35-.35L16.64,13a.5.5,0,0,0-.71,0,.49.49,0,0,0-.09.57.49.49,0,0,0,.09.13L17,14.75a.5.5,0,0,0,.71,0l1.19-1.19.48-.48A.5.5,0,0,0,19.37,12.37Z" transform="translate(-1.29 -1.46)"/></svg>