<svg id="Layer_1" data-name="Layer 1" xmlns="http://www.w3.org/2000/svg" viewBox="0 0 32.13 25"><path class="cls-1" d="M30.53,11.78H16.3V8.12A3.09,3.09,0,0,0,13.21,5H4.56A3.09,3.09,0,0,0,1.47,8.12v8.66a3.09,3.09,0,0,0,3.09,3.09H8.22V27A3.07,3.07,0,0,0,11.28,30H30.53A3.07,3.07,0,0,0,33.59,27V14.85A3.07,3.07,0,0,0,30.53,11.78Zm0,17.25H25.47V19.41h7.13V27A2.07,2.07,0,0,1,30.53,29Zm-26-10.17A2.08,2.08,0,0,1,2.91,18L14.48,6.47a2.08,2.08,0,0,1,.82,1.65v.82l-.06-.06-2.9,2.9-.5.5-.5.5L9.22,14.91l-.5.5-.5.5L5.36,18.77l.1.1ZM4.32,6.06,2.49,7.88A2.08,2.08,0,0,1,4.32,6.06ZM8.93,6,2.47,12.49V9.32L5.76,6Zm4.28,0,.27,0L2.5,17a2.05,2.05,0,0,1,0-.27V13.91L10.34,6Zm-5,11.29.5-.5.5-.5,3.54-3.54.5-.5.5-.5,1.54-1.54v3.24l0,0L9.92,18.79l.08.08H6.67Zm24.38-2.48v3.56H25.47V12.78h5.06A2.07,2.07,0,0,1,32.59,14.85ZM15.3,16.78v2.09h-4l4-4Zm0,3.09v4.79H9.22V19.86ZM9.22,25.66H24.47V29H11.28A2.07,2.07,0,0,1,9.22,27Z" transform="translate(-1.47 -5.03)"/></svg>