<svg id="Layer_2" data-name="Layer 2" xmlns="http://www.w3.org/2000/svg" viewBox="0 0 38.47 38.47"><path class="cls-1" d="M29,48.23A19.24,19.24,0,1,1,48.23,29,19.26,19.26,0,0,1,29,48.23Zm0-36.47A17.24,17.24,0,1,0,46.23,29,17.25,17.25,0,0,0,29,11.76Z" transform="translate(-9.76 -9.76)"/><path class="cls-2" d="M39.89,25.4l-10.6-3.32a1,1,0,0,0-.6,0L18.1,25.4a1,1,0,0,0,0,1.91L23,28.84s0,0,0,.07v4.46a1,1,0,0,0,.51.87l.92.52a9.39,9.39,0,0,0,9.13,0l.92-.52a1,1,0,0,0,.51-.87V29a1,1,0,0,0,0-.17l1.6-.5v2.19a1,1,0,0,0,2,0V27.72l1.33-.42a1,1,0,0,0,0-1.91ZM33,32.79l-.41.23a7.38,7.38,0,0,1-7.17,0L25,32.79V29.47l3.7,1.16a1,1,0,0,0,.6,0L33,29.47Zm-4-4.16-7.25-2.27L29,24.08l7.25,2.27Z" transform="translate(-9.76 -9.76)"/></svg>