<svg id="Layer_2" data-name="Layer 2" xmlns="http://www.w3.org/2000/svg" viewBox="0 0 38.47 38.47"><path class="cls-1" d="M29,48.23A19.23,19.23,0,1,1,48.23,29,19.26,19.26,0,0,1,29,48.23Zm0-36.47A17.23,17.23,0,1,0,46.23,29,17.25,17.25,0,0,0,29,11.76Z" transform="translate(-9.76 -9.76)"/><path class="cls-2" d="M43.77,24.66,40.71,21.6a1,1,0,0,0-1.41,0l-3.07,3.07a1,1,0,0,0,1.41,1.41l1.43-1.43c-.06,5.19-2.3,8.74-6.68,10.54a1,1,0,0,0-.31.2h0l0,0a1,1,0,0,0-.19.28,1,1,0,0,0,0,.19,1,1,0,0,0,0,.58l0,.06a1,1,0,0,0,.16.23l0,0,0,0a1,1,0,0,0,.21.14l.06,0h0a1,1,0,0,0,.28.06h.06a1,1,0,0,0,.38-.08h0c3.64-1.5,7.78-4.84,7.91-12.25l1.29,1.29a1,1,0,0,0,1.41-1.41Z" transform="translate(-9.76 -9.76)"/><path class="cls-2" d="M25.1,21a1,1,0,0,0-1.12.33l-2.44,3.17L19.1,21.34a1,1,0,0,0-1.79.61v7.46a1,1,0,1,0,2,0V24.89l1.44,1.87a1,1,0,0,0,1.58,0l1.44-1.87v4.53a1,1,0,0,0,2,0V22A1,1,0,0,0,25.1,21Z" transform="translate(-9.76 -9.76)"/><path class="cls-2" d="M33.09,26.78a3,3,0,0,0-2.07-2,1,1,0,0,0-.39-.13,1,1,0,0,1-.73-.45.9.9,0,0,1,.09-1,1.18,1.18,0,0,1,1.55,0,1,1,0,1,0,1.2-1.6,3.14,3.14,0,0,0-4.27.29,2.91,2.91,0,0,0-.32,3.26,3,3,0,0,0,2.12,1.43l.06,0a1.08,1.08,0,0,1,.85.71.93.93,0,0,1-.09.8c-.25.29-1.23.44-2.24-.32a1,1,0,0,0-1.21,1.6,4.61,4.61,0,0,0,2.73,1,2.86,2.86,0,0,0,2.25-1A2.9,2.9,0,0,0,33.09,26.78Z" transform="translate(-9.76 -9.76)"/><path class="cls-2" d="M19.7,36.29a.74.74,0,0,0-.18-.09.65.65,0,0,0-.18-.06.88.88,0,0,0-.39,0,.62.62,0,0,0-.19.06.74.74,0,0,0-.18.09l-.15.13a1,1,0,0,0-.29.7,1,1,0,0,0,.08.39,1,1,0,0,0,.21.32,1.19,1.19,0,0,0,.33.22,1,1,0,0,0,.38.07,1,1,0,0,0,.71-.29,1.1,1.1,0,0,0,.21-.32.9.9,0,0,0,.08-.39,1,1,0,0,0-.29-.7Z" transform="translate(-9.76 -9.76)"/><path class="cls-2" d="M23.75,36.55a1,1,0,1,0,0,2h0a1,1,0,0,0,1-1A1,1,0,0,0,23.75,36.55Z" transform="translate(-9.76 -9.76)"/><path class="cls-2" d="M28.18,36.29a1,1,0,0,0,.14,2h.15a1,1,0,0,0,.84-1.14A1,1,0,0,0,28.18,36.29Z" transform="translate(-9.76 -9.76)"/></svg>