<?xml version="1.0" encoding="utf-8"?>
<!-- Generator: Adobe Illustrator 19.1.0, SVG Export Plug-In . SVG Version: 6.00 Build 0)  -->
<svg version="1.1" id="Layer_1" xmlns="http://www.w3.org/2000/svg" xmlns:xlink="http://www.w3.org/1999/xlink" x="0px" y="0px"
	 viewBox="-34 11 30 30" style="enable-background:new -34 11 30 30;" xml:space="preserve">
<g id="XMLID_204_">
	<path id="XMLID_5_" d="M-6.9,39.7c-0.4,0-0.8-0.1-1.1-0.4l-4.8-4.8c-0.6-0.6-0.6-1.5,0-2.1c0.6-0.6,1.5-0.6,2.1,0l4.8,4.8
		c0.6,0.6,0.6,1.5,0,2.1C-6.1,39.5-6.5,39.7-6.9,39.7z"/>
	<path id="XMLID_2_" d="M-21.3,35c-6.2,0-11.2-5-11.2-11.2c0-6.1,5-11.1,11.1-11.1s11.1,5,11.1,11.1C-10.2,30-15.2,35-21.3,35z
		 M-21.3,15.7c-4.5,0-8.1,3.6-8.1,8.1s3.6,8.1,8.1,8.1s8.1-3.6,8.1-8.1C-13.2,19.4-16.9,15.7-21.3,15.7z"/>
</g>
</svg>
