<svg id="Layer_3" data-name="Layer 3" xmlns="http://www.w3.org/2000/svg" viewBox="0 0 38.47 38.47"><path class="cls-1" d="M29,48.23A19.23,19.23,0,1,1,48.23,29,19.26,19.26,0,0,1,29,48.23Zm0-36.47A17.23,17.23,0,1,0,46.23,29,17.25,17.25,0,0,0,29,11.76Z" transform="translate(-9.76 -9.76)"/><path class="cls-2" d="M43.77,24.66,40.71,21.6a1,1,0,0,0-1.41,0l-3.07,3.07a1,1,0,0,0,1.41,1.41l1.43-1.43c-.06,5.19-2.3,8.74-6.68,10.54a1,1,0,0,0-.26.17l-.07,0a.92.92,0,0,0-.08.13,1,1,0,0,0-.13.21.89.89,0,0,0-.07.35v0h0a1,1,0,0,0,.07.38l.06.09a1,1,0,0,0,.14.2l0,0,.05,0a1,1,0,0,0,.23.15l0,0h0a1,1,0,0,0,.28.06h.06a1,1,0,0,0,.4-.09c3.63-1.5,7.76-4.84,7.89-12.24l1.29,1.29a1,1,0,0,0,1.41-1.41Z" transform="translate(-9.76 -9.76)"/><path class="cls-2" d="M33.09,26.78a3,3,0,0,0-2.07-2,1,1,0,0,0-.39-.13,1,1,0,0,1-.73-.45.9.9,0,0,1,.09-1,1.18,1.18,0,0,1,1.55,0,1,1,0,0,0,1.2-1.6,3.14,3.14,0,0,0-4.27.3,2.91,2.91,0,0,0-.32,3.26,3,3,0,0,0,2.12,1.43l.06,0a1.08,1.08,0,0,1,.85.71.93.93,0,0,1-.09.8c-.25.29-1.23.44-2.24-.32a1,1,0,1,0-1.21,1.6,4.6,4.6,0,0,0,2.73,1,2.86,2.86,0,0,0,2.24-1A2.9,2.9,0,0,0,33.09,26.78Z" transform="translate(-9.76 -9.76)"/><path class="cls-2" d="M19.85,36.42a1,1,0,0,0-.9-.28.62.62,0,0,0-.19.06.55.55,0,0,0-.17.09.64.64,0,0,0-.15.13.88.88,0,0,0-.22.32,1,1,0,0,0-.08.38,1,1,0,0,0,.08.39.88.88,0,0,0,.22.32,1,1,0,0,0,.32.22,1,1,0,0,0,.38.07,1,1,0,0,0,.71-.29,1,1,0,0,0,.22-.32,1,1,0,0,0,.07-.39,1,1,0,0,0-.07-.38A1,1,0,0,0,19.85,36.42Z" transform="translate(-9.76 -9.76)"/><path class="cls-2" d="M28.18,36.29a1,1,0,0,0,.15,2h.14a1,1,0,1,0-.29-2Z" transform="translate(-9.76 -9.76)"/><path class="cls-2" d="M23.75,36.55a1,1,0,0,0,0,2h0a1,1,0,0,0,1-1A1,1,0,0,0,23.75,36.55Z" transform="translate(-9.76 -9.76)"/><path class="cls-2" d="M24.73,20.9a1,1,0,0,0-1,1v2.75H20.15V21.9a1,1,0,0,0-2,0v7.67a1,1,0,0,0,2,0V26.65h3.58v2.92a1,1,0,0,0,2,0V21.9A1,1,0,0,0,24.73,20.9Z" transform="translate(-9.76 -9.76)"/></svg>