<svg id="Layer_3" data-name="Layer 3" xmlns="http://www.w3.org/2000/svg" viewBox="0 0 38.47 38.47"><path class="cls-1" d="M29,48.2A19.23,19.23,0,1,1,48.23,29,19.26,19.26,0,0,1,29,48.2Zm0-36.47A17.23,17.23,0,1,0,46.23,29,17.25,17.25,0,0,0,29,11.73Z" transform="translate(-9.76 -9.73)"/><path class="cls-2" d="M32.17,22.63a1,1,0,0,0,1.41-1.41L29.7,17.33a1,1,0,0,0-1.41,0L24.4,21.22a1,1,0,0,0,1.41,1.41L28,20.45v5.27h0v9a1,1,0,0,0,2,0V20.45Z" transform="translate(-9.76 -9.73)"/><path class="cls-2" d="M37.64,28.58a1,1,0,0,0-1.41,0l-2.9,2.9a1,1,0,1,0,1.41,1.41l1.2-1.2v6.1a1,1,0,0,0,2,0V31.7l1.2,1.2a1,1,0,1,0,1.41-1.41Z" transform="translate(-9.76 -9.73)"/><path class="cls-2" d="M21.76,28.58a1,1,0,0,0-1.41,0l-2.9,2.9a1,1,0,1,0,1.41,1.41l1.2-1.2v6.1a1,1,0,0,0,2,0V31.7l1.2,1.2a1,1,0,1,0,1.41-1.41Z" transform="translate(-9.76 -9.73)"/><path class="cls-2" d="M17.73,25.74a1.05,1.05,0,0,0-.29-.71,1.19,1.19,0,0,0-.33-.22A1,1,0,0,0,16,25a1,1,0,0,0-.22.33A1,1,0,0,0,16,26.45a1,1,0,0,0,.32.21,1,1,0,0,0,.39.08,1,1,0,0,0,.71-.29A1.07,1.07,0,0,0,17.73,25.74Z" transform="translate(-9.76 -9.73)"/><circle class="cls-2" cx="27.41" cy="16" r="1"/><path class="cls-2" d="M20.82,26.74a1,1,0,1,0-1-1A1,1,0,0,0,20.82,26.74Z" transform="translate(-9.76 -9.73)"/><circle class="cls-2" cx="15.14" cy="16" r="1"/><circle class="cls-2" cx="23.32" cy="16" r="1"/><path class="cls-2" d="M42.18,25.36A.84.84,0,0,0,42,25a1,1,0,0,0-1.41,0,1,1,0,0,0-.29.71,1,1,0,0,0,.29.71,1,1,0,0,0,.71.29,1,1,0,0,0,.38-.08,1,1,0,0,0,.32-.21,1,1,0,0,0,.22-1.09Z" transform="translate(-9.76 -9.73)"/></svg>