<svg id="Layer_1" data-name="Layer 1" xmlns="http://www.w3.org/2000/svg" viewBox="0 0 38.47 38.47"><path class="cls-1" d="M29,9.76A19.23,19.23,0,1,0,48.23,29,19.26,19.26,0,0,0,29,9.76Zm0,36.47A17.23,17.23,0,1,1,46.23,29,17.25,17.25,0,0,1,29,46.23Z" transform="translate(-9.76 -9.76)"/><path class="cls-2" d="M37.83,36H33V23.68a1,1,0,0,0-1-1H29.94a1,1,0,0,0-1,1V36H27V29.63a1,1,0,0,0-1-1H23.93a1,1,0,0,0-1,1V36H20.16a1,1,0,0,0,0,2H37.83a1,1,0,0,0,0-2Z" transform="translate(-9.76 -9.76)"/><path class="cls-2" d="M35.38,34.3h1.56a1,1,0,0,0,0-2H35.38a1,1,0,0,0,0,2Z" transform="translate(-9.76 -9.76)"/><path class="cls-2" d="M35.38,30.55h1.56a1,1,0,0,0,0-2H35.38a1,1,0,1,0,0,2Z" transform="translate(-9.76 -9.76)"/><path class="cls-2" d="M35.38,26.79h1.56a1,1,0,0,0,0-2H35.38a1,1,0,0,0,0,2Z" transform="translate(-9.76 -9.76)"/><path class="cls-2" d="M21.75,25.44a1,1,0,0,0,1.41,0l6.57-6.57a1,1,0,0,0-1.41-1.41l-5.86,5.86L21.16,22a1,1,0,0,0-1.41,1.41Z" transform="translate(-9.76 -9.76)"/></svg>