<svg id="Layer_2" data-name="Layer 2" xmlns="http://www.w3.org/2000/svg" viewBox="0 0 38.47 38.47"><path class="cls-1" d="M29,48.21A19.24,19.24,0,1,1,48.23,29,19.26,19.26,0,0,1,29,48.21Zm0-36.47A17.24,17.24,0,1,0,46.23,29,17.25,17.25,0,0,0,29,11.73Z" transform="translate(-9.76 -9.73)"/><path class="cls-2" d="M33.59,21.22,29.7,17.33a1,1,0,0,0-1.41,0L24.4,21.22a1,1,0,0,0,1.41,1.41L28,20.45V34.8a1,1,0,0,0,2,0V20.45l2.18,2.18a1,1,0,0,0,1.41-1.41Z" transform="translate(-9.76 -9.73)"/><path class="cls-2" d="M40.54,27.48l-2.9-2.91a1,1,0,0,0-1.41,0l-2.91,2.91a1,1,0,1,0,1.41,1.41l1.2-1.2V37.8a1,1,0,1,0,2,0V27.69l1.2,1.2a1,1,0,0,0,1.41-1.41Z" transform="translate(-9.76 -9.73)"/><path class="cls-2" d="M21.76,24.57a1,1,0,0,0-1.41,0l-2.91,2.91a1,1,0,1,0,1.41,1.41l1.2-1.2V37.8a1,1,0,0,0,2,0V27.69l1.2,1.2a1,1,0,0,0,1.41-1.41Z" transform="translate(-9.76 -9.73)"/></svg>