<svg id="Layer_1" data-name="Layer 1" xmlns="http://www.w3.org/2000/svg" viewBox="0 0 15.74 15.74"><title>icon-info</title><path d="M8.5.63A7.87,7.87,0,1,0,16.37,8.5,7.88,7.88,0,0,0,8.5.63Zm0,14.74A6.87,6.87,0,1,1,15.37,8.5,6.88,6.88,0,0,1,8.5,15.37Z" transform="translate(-0.63 -0.63)"/><path d="M8.5,7.5a1,1,0,0,0-1,1v3.6a1,1,0,0,0,2,0V8.5A1,1,0,0,0,8.5,7.5Z" transform="translate(-0.63 -0.63)"/><path d="M8.5,3.9a1,1,0,0,0-1,1v.51a1,1,0,0,0,2,0V4.9A1,1,0,0,0,8.5,3.9Z" transform="translate(-0.63 -0.63)"/></svg>