<svg id="Layer_1" data-name="Layer 1" xmlns="http://www.w3.org/2000/svg" viewBox="0 0 18.03 21.08"><path class="cls-1" d="M18.07,22.54H5.87A2.92,2.92,0,0,1,3,19.63V4.37A2.92,2.92,0,0,1,5.87,1.46h12.2A2.92,2.92,0,0,1,21,4.37V19.63A2.92,2.92,0,0,1,18.07,22.54ZM5.87,3.46A.92.92,0,0,0,5,4.37V19.63a.92.92,0,0,0,.92.92h12.2a.92.92,0,0,0,.92-.92V4.37a.92.92,0,0,0-.92-.92Z" transform="translate(-2.95 -1.46)"/><path class="cls-1" d="M16.05,9H7.89a1,1,0,0,1,0-2h8.17a1,1,0,0,1,0,2Z" transform="translate(-2.95 -1.46)"/><path class="cls-1" d="M16.05,13.12H7.89a1,1,0,0,1,0-2h8.17a1,1,0,0,1,0,2Z" transform="translate(-2.95 -1.46)"/><path class="cls-1" d="M16.05,17.29H7.89a1,1,0,1,1,0-2h8.17a1,1,0,1,1,0,2Z" transform="translate(-2.95 -1.46)"/></svg>