<?xml version="1.0" encoding="utf-8"?>
<!-- Generator: Adobe Illustrator 19.2.1, SVG Export Plug-In . SVG Version: 6.00 Build 0)  -->
<!DOCTYPE svg PUBLIC "-//W3C//DTD SVG 1.1//EN" "http://www.w3.org/Graphics/SVG/1.1/DTD/svg11.dtd">
<svg version="1.1" id="Layer_1" xmlns="http://www.w3.org/2000/svg" xmlns:xlink="http://www.w3.org/1999/xlink" x="0px" y="0px"
	 viewBox="0 0 263.1 93" enable-background="new 0 0 263.1 93" xml:space="preserve">
<g>
	<g>
		<g>
			<path fill="#098593" d="M19.7,68.6H29V42.9h-7.4c-1.1,0-2,0.9-2,2V68.6z"/>
			<path fill="#64C9D3" d="M24.7,54.7h4.3c0.9,0,1.7,0.8,1.7,1.7v3c0,0.9-0.8,1.7-1.7,1.7h-4.3c-0.9,0-1.7-0.8-1.7-1.7v-3
				C23,55.4,23.8,54.7,24.7,54.7z"/>
			<path fill="#018E9E" d="M36,38.1H23.9c-0.6,0-1.1,0.3-1.5,0.7l-5.9,7.9H36"/>
			<path fill="#08727E" d="M36,49.3H18.5c-1.1,0-2-0.9-2-2v-0.6H36V49.3z"/>
		</g>
		<g>
			<path fill="#098593" d="M72.7,68.6h-9.4V42.9h7.4c1.1,0,2,0.9,2,2V68.6z"/>
			<path fill="#64C9D3" d="M67.7,54.7h-4.3c-0.9,0-1.7,0.8-1.7,1.7v3c0,0.9,0.8,1.7,1.7,1.7h4.3c0.9,0,1.7-0.8,1.7-1.7v-3
				C69.4,55.4,68.6,54.7,67.7,54.7z"/>
			<path fill="#018E9E" d="M56.4,38.1h12.1c0.6,0,1.1,0.3,1.5,0.7l5.9,7.9H56.4"/>
			<path fill="#08727E" d="M56.4,49.3h17.5c1.1,0,2-0.9,2-2v-0.6H56.4V49.3z"/>
		</g>
	</g>
	<path fill="#64C9D3" d="M64.9,57.4H27.5V32.2c0-1.1,0.9-2,2-2h33.4c1.1,0,2,0.9,2,2V57.4z"/>
	<rect x="27.5" y="32.9" fill="#00A7B9" width="37.4" height="36.7"/>
	<rect x="44.9" y="17.9" fill="#676767" width="2.8" height="8.2"/>
	<path fill="#D44336" d="M60,24.1h-8.3c-0.9,0-1.7-0.8-1.7-1.7v-5.3h8.3c0.9,0,1.7,0.8,1.7,1.7V24.1z"/>
	<path fill="#9F3023" d="M55,20.1l-3.3,4c-0.9,0-1.7-0.8-1.7-1.7v-5.3h4.8L55,20.1z"/>
	<path fill="#F15940" d="M55,20.2h-10v-7h8.3c0.9,0,1.7,0.8,1.7,1.7V20.2z"/>
	<path fill="#64C9D3" d="M58.9,51.4H56c-0.9,0-1.7,0.8-1.7,1.7v3c0,0.9,0.8,1.7,1.7,1.7h2.9c0.9,0,1.7-0.8,1.7-1.7v-3
		C60.6,52.1,59.8,51.4,58.9,51.4z"/>
	<path fill="#64C9D3" d="M47.6,51.4h-2.9c-0.9,0-1.7,0.8-1.7,1.7v3c0,0.9,0.8,1.7,1.7,1.7h2.9c0.9,0,1.7-0.8,1.7-1.7v-3
		C49.3,52.1,48.6,51.4,47.6,51.4z"/>
	<path fill="#64C9D3" d="M36,51.4h-2.9c-0.9,0-1.7,0.8-1.7,1.7v3c0,0.9,0.8,1.7,1.7,1.7H36c0.9,0,1.7-0.8,1.7-1.7v-3
		C37.7,52.1,37,51.4,36,51.4z"/>
	<path fill="#64C9D3" d="M36,40.1h-2.9c-0.9,0-1.7,0.8-1.7,1.7v3c0,0.9,0.8,1.7,1.7,1.7H36c0.9,0,1.7-0.8,1.7-1.7v-3
		C37.7,40.9,37,40.1,36,40.1z"/>
	<path fill="#64C9D3" d="M34.6,41.6L34.6,41.6c-0.9,0-1.7,0.8-1.7,1.7v0.1c0,0.9,0.8,1.7,1.7,1.7h0c0.9,0,1.7-0.8,1.7-1.7v-0.1
		C36.3,42.3,35.5,41.6,34.6,41.6z"/>
	<path fill="#64C9D3" d="M47.6,40.1h-2.9c-0.9,0-1.7,0.8-1.7,1.7v3c0,0.9,0.8,1.7,1.7,1.7h2.9c0.9,0,1.7-0.8,1.7-1.7v-3
		C49.3,40.9,48.6,40.1,47.6,40.1z"/>
	<path fill="#64C9D3" d="M58.9,40.1H56c-0.9,0-1.7,0.8-1.7,1.7v3c0,0.9,0.8,1.7,1.7,1.7h2.9c0.9,0,1.7-0.8,1.7-1.7v-3
		C60.6,40.9,59.8,40.1,58.9,40.1z"/>
	<circle fill="#018E9E" cx="46.2" cy="31.2" r="6.3"/>
	<circle fill="#64C9D3" cx="46.2" cy="31.2" r="4.2"/>
	<path fill="#676767" d="M74.6,67.8H17.8c-0.8,0-1.5,0.7-1.5,1.5v0c0,0.8,0.7,1.5,1.5,1.5h56.7c0.8,0,1.5-0.7,1.5-1.5v0
		C76.1,68.5,75.4,67.8,74.6,67.8z"/>
	<g>
		<path fill="#FFFFFF" stroke="#676767" stroke-width="3" stroke-miterlimit="10" d="M56.6,79.8H35.8c-2.2,0-4-1.8-4-4v-15
			c0-2.2,1.8-4,4-4h20.7c2.2,0,4,1.8,4,4v15C60.6,78,58.8,79.8,56.6,79.8z"/>
		<g>
			<path fill="#1AB689" d="M42.3,75.1h-2.6c-0.3,0-0.5-0.2-0.5-0.5v-8.4c0-0.3,0.2-0.5,0.5-0.5h2.6c0.3,0,0.5,0.2,0.5,0.5v8.4
				C42.8,74.9,42.6,75.1,42.3,75.1z"/>
			<path fill="#F5AE27" d="M52.7,75.1h-2.6c-0.3,0-0.5-0.2-0.5-0.5v-8.4c0-0.3,0.2-0.5,0.5-0.5h2.6c0.3,0,0.5,0.2,0.5,0.5v8.4
				C53.2,74.9,53,75.1,52.7,75.1z"/>
			<path fill="#F15940" d="M47.5,75.1h-2.6c-0.3,0-0.5-0.2-0.5-0.5V62.4c0-0.3,0.2-0.5,0.5-0.5h2.6c0.3,0,0.5,0.2,0.5,0.5v12.3
				C48,74.9,47.8,75.1,47.5,75.1z"/>
		</g>
	</g>
	<path fill="#FFFFFF" d="M46.7,32l-0.3,0.1c-0.3,0.1-0.6,0-0.7-0.3l-0.8-2.2c-0.1-0.3,0-0.6,0.3-0.7l0.3-0.1c0.3-0.1,0.6,0,0.7,0.3
		l0.8,2.2C47.1,31.6,47,31.9,46.7,32z"/>
	<path fill="#FFFFFF" d="M45.8,31.8l-0.1-0.3c-0.1-0.3,0-0.6,0.3-0.7l2.1-0.8c0.3-0.1,0.6,0,0.7,0.3l0.1,0.3c0.1,0.3,0,0.6-0.3,0.7
		l-2.1,0.8C46.2,32.2,45.9,32,45.8,31.8z"/>
	<g>
		<g>
			<path fill="#676767" d="M107.6,25.8c0.1,0.2,0.2,0.3,0.2,0.5c0,0.2-0.1,0.4-0.2,0.5c-0.1,0.1-0.3,0.2-0.6,0.2s-0.4-0.1-0.6-0.3
				l-4.4-5.6l-1.9,2v3.2c0,0.2-0.1,0.4-0.2,0.5S99.6,27,99.3,27c-0.2,0-0.4-0.1-0.5-0.2s-0.2-0.3-0.2-0.5V15.8
				c0-0.2,0.1-0.4,0.2-0.6c0.1-0.2,0.3-0.2,0.5-0.2c0.2,0,0.4,0.1,0.6,0.2c0.2,0.2,0.2,0.3,0.2,0.6v5.4l5.8-5.9
				c0.1-0.2,0.3-0.3,0.6-0.3c0.2,0,0.4,0.1,0.5,0.2c0.1,0.1,0.2,0.3,0.2,0.5c0,0.2-0.1,0.4-0.2,0.5l-3.9,3.9L107.6,25.8z"/>
			<path fill="#676767" d="M121.3,15c0.2,0,0.4,0.1,0.6,0.2c0.2,0.2,0.2,0.3,0.2,0.6v10.2c0,0.3-0.1,0.6-0.3,0.8
				c-0.2,0.2-0.5,0.3-0.8,0.3h-0.2c-0.4,0-0.7-0.2-0.9-0.5l-6.6-9.5v9.2c0,0.2-0.1,0.4-0.2,0.5s-0.3,0.2-0.6,0.2
				c-0.2,0-0.4-0.1-0.5-0.2s-0.2-0.3-0.2-0.5V16.1c0-0.3,0.1-0.6,0.3-0.8c0.2-0.2,0.5-0.3,0.8-0.3h0.2c0.4,0,0.7,0.2,0.9,0.5
				l6.6,9.5v-9.2c0-0.2,0.1-0.4,0.2-0.6C120.9,15.1,121,15,121.3,15z"/>
			<path fill="#676767" d="M132.3,14.9c1.8,0,3.2,0.6,4.3,1.7c1.1,1.1,1.6,2.6,1.7,4.4c0,1.8-0.6,3.3-1.7,4.4
				c-1.1,1.1-2.5,1.7-4.3,1.7c-1.8,0-3.2-0.6-4.3-1.7c-1.1-1.1-1.6-2.6-1.7-4.4c0-1.8,0.6-3.3,1.7-4.4
				C129.1,15.5,130.5,14.9,132.3,14.9z M132.3,25.7c1.4,0,2.5-0.4,3.3-1.3c0.8-0.9,1.2-2,1.2-3.3c0-1.4-0.4-2.5-1.2-3.3
				c-0.8-0.9-1.9-1.3-3.3-1.3c-1.4,0-2.5,0.4-3.3,1.3c-0.8,0.9-1.2,2-1.2,3.3c0,1.4,0.4,2.5,1.2,3.3
				C129.8,25.2,130.9,25.7,132.3,25.7z"/>
			<path fill="#676767" d="M149.5,15c0.2,0,0.4,0.1,0.6,0.2c0.2,0.1,0.3,0.3,0.3,0.5l2.9,9.4l2.9-9.4c0.1-0.4,0.4-0.6,0.8-0.6
				c0.2,0,0.4,0.1,0.5,0.2s0.2,0.3,0.2,0.4s0,0.3-0.1,0.4l-3.3,10.2c-0.2,0.5-0.5,0.8-1,0.8c-0.2,0-0.4-0.1-0.6-0.2
				c-0.2-0.1-0.3-0.3-0.4-0.6l-2.7-8.7l-2.7,8.7c-0.1,0.2-0.2,0.4-0.4,0.6c-0.2,0.1-0.4,0.2-0.6,0.2c-0.5,0-0.8-0.3-1-0.8L141.4,16
				c0-0.1-0.1-0.3-0.1-0.4s0.1-0.3,0.2-0.4c0.1-0.1,0.3-0.2,0.5-0.2c0.4,0,0.7,0.2,0.8,0.6l2.9,9.4l2.9-9.4c0.1-0.2,0.2-0.3,0.3-0.5
				C149.1,15.1,149.3,15,149.5,15z"/>
			<path fill="#676767" d="M174.9,15.4c0.2-0.3,0.4-0.4,0.6-0.4c0.3,0,0.5,0.1,0.6,0.2c0.1,0.1,0.2,0.3,0.2,0.5s0,0.4-0.1,0.5
				l-4.1,5.7v4.3c0,0.2-0.1,0.4-0.2,0.5c-0.1,0.1-0.3,0.2-0.5,0.2c-0.2,0-0.4-0.1-0.6-0.2c-0.2-0.1-0.2-0.3-0.2-0.5v-4.3l-4.1-5.7
				c-0.1-0.1-0.1-0.3-0.1-0.5s0.1-0.4,0.2-0.5s0.3-0.2,0.6-0.2c0.3,0,0.5,0.1,0.6,0.4l3.6,5.2L174.9,15.4z"/>
			<path fill="#676767" d="M184.9,14.9c1.8,0,3.2,0.6,4.3,1.7c1.1,1.1,1.6,2.6,1.7,4.4c0,1.8-0.6,3.3-1.7,4.4
				c-1.1,1.1-2.5,1.7-4.3,1.7c-1.8,0-3.2-0.6-4.3-1.7c-1.1-1.1-1.6-2.6-1.7-4.4c0-1.8,0.6-3.3,1.7-4.4
				C181.7,15.5,183.1,14.9,184.9,14.9z M184.9,25.7c1.4,0,2.5-0.4,3.3-1.3c0.8-0.9,1.2-2,1.2-3.3c0-1.4-0.4-2.5-1.2-3.3
				c-0.8-0.9-1.9-1.3-3.3-1.3c-1.4,0-2.5,0.4-3.3,1.3c-0.8,0.9-1.2,2-1.2,3.3c0,1.4,0.4,2.5,1.2,3.3
				C182.5,25.2,183.6,25.7,184.9,25.7z"/>
			<path fill="#676767" d="M204.1,15c0.2,0,0.4,0.1,0.6,0.2c0.2,0.2,0.2,0.3,0.2,0.6v6.7c0,1.5-0.5,2.7-1.6,3.5
				c-0.9,0.7-2,1.1-3.3,1.1c-1.3,0-2.4-0.4-3.3-1.1c-1.1-0.9-1.6-2-1.6-3.5v-6.7c0-0.2,0.1-0.4,0.2-0.6c0.1-0.2,0.3-0.2,0.5-0.2
				c0.2,0,0.4,0.1,0.6,0.2c0.2,0.2,0.2,0.3,0.2,0.6v6.8c0,1,0.3,1.8,1,2.4c0.6,0.5,1.4,0.8,2.3,0.8c0.9,0,1.7-0.3,2.3-0.8
				c0.7-0.6,1-1.4,1-2.4v-6.8c0-0.2,0.1-0.4,0.2-0.6C203.7,15.1,203.9,15,204.1,15z"/>
			<path fill="#676767" d="M219.1,26.3c0,0.2-0.1,0.4-0.2,0.5s-0.3,0.2-0.6,0.2c-0.2,0-0.4-0.1-0.6-0.2c-0.1-0.1-0.2-0.3-0.2-0.6
				v-0.5c0-0.9-0.1-1.6-0.3-2s-0.5-0.8-0.8-1s-0.9-0.4-1.5-0.4h-3.5v3.9c0,0.2-0.1,0.4-0.2,0.5s-0.3,0.2-0.6,0.2
				c-0.2,0-0.4-0.1-0.5-0.2s-0.2-0.3-0.2-0.5V15.9c0-0.2,0.1-0.4,0.2-0.6c0.1-0.2,0.3-0.2,0.5-0.2h4c1.6,0,2.7,0.3,3.5,1
				c0.7,0.6,1.1,1.4,1.1,2.5c0,0.7-0.2,1.3-0.6,1.8c-0.4,0.6-0.9,1-1.7,1.2c0.8,0.2,1.4,0.8,1.8,1.8c0.2,0.6,0.4,1.4,0.4,2.1V26.3z
				 M214.4,20.9c1,0,1.7-0.2,2.3-0.6c0.6-0.4,0.9-0.9,0.9-1.7c0-0.7-0.2-1.2-0.7-1.5c-0.5-0.4-1.4-0.6-2.6-0.6h-3v4.3H214.4z"/>
			<path fill="#676767" d="M97.8,56.1l2.5-0.5V38.9l-2.5-0.5v-2.8h18.5V42h-3.6l-0.2-2.8h-7.6v6.4h8.1v3.6h-8.1v6.4l2.5,0.5v2.8
				h-9.6V56.1z"/>
			<path fill="#676767" d="M119.6,58.9v-2.8l2.5-0.5V38.9l-2.5-0.5v-2.8h2.5h4.7h2.5v2.8l-2.5,0.5v16.4h6.5l0.2-2.9h3.6v6.5H119.6z"
				/>
			<path fill="#676767" d="M161.2,47.4c0,3.4-1,6.2-2.9,8.4s-4.5,3.3-7.6,3.3c-3.1,0-5.7-1.1-7.6-3.3c-1.9-2.2-2.9-5-2.9-8.4v-0.4
				c0-3.4,1-6.2,2.9-8.4s4.5-3.3,7.6-3.3c3.1,0,5.7,1.1,7.6,3.3c2,2.2,2.9,5,2.9,8.4V47.4z M156.5,47.1c0-2.4-0.5-4.4-1.5-5.8
				c-1-1.5-2.5-2.2-4.4-2.2s-3.4,0.7-4.4,2.2c-1,1.5-1.4,3.4-1.4,5.9v0.4c0,2.4,0.5,4.4,1.5,5.9c1,1.5,2.4,2.2,4.4,2.2
				c2,0,3.4-0.7,4.4-2.2c1-1.5,1.5-3.5,1.5-5.9V47.1z"/>
			<path fill="#676767" d="M175.1,35.7c2.6,0,4.7,0.6,6.2,1.8s2.2,2.9,2.2,5c0,1.2-0.3,2.2-0.9,3c-0.6,0.9-1.5,1.6-2.8,2.1
				c1.4,0.4,2.4,1.1,3,2s0.9,2.1,0.9,3.5v1.2c0,0.5,0.1,0.9,0.3,1.2c0.2,0.3,0.5,0.4,1,0.5l0.6,0.1v2.8h-2.4c-1.5,0-2.6-0.4-3.2-1.2
				s-0.9-1.9-0.9-3.2v-1.3c0-1.1-0.3-2-0.9-2.7c-0.6-0.6-1.4-1-2.5-1h-3.8v6.1l2.5,0.5v2.8h-9.6v-2.8l2.5-0.5V38.9l-2.5-0.5v-2.8
				h2.5H175.1z M171.8,45.9h3.2c1.3,0,2.3-0.3,2.9-0.8c0.6-0.6,1-1.3,1-2.4c0-1-0.3-1.9-1-2.5c-0.6-0.6-1.6-0.9-2.8-0.9h-3.3V45.9z"
				/>
			<path fill="#676767" d="M188.7,38.5v-2.8h9.6v2.8l-2.5,0.5v16.7l2.5,0.5v2.8h-9.6v-2.8l2.5-0.5V38.9L188.7,38.5z"/>
			<path fill="#676767" d="M212.2,35.7c2.8,0,5.2,0.9,7,2.7c1.8,1.8,2.8,4.1,2.8,7v3.8c0,2.8-0.9,5.2-2.8,7c-1.8,1.8-4.2,2.7-7,2.7
				h-10.4v-2.8l2.5-0.5V38.9l-2.5-0.5v-2.8h2.5H212.2z M208.9,39.2v16h3.1c1.7,0,3-0.6,3.9-1.7c0.9-1.1,1.4-2.6,1.4-4.4v-3.9
				c0-1.8-0.5-3.3-1.4-4.4c-0.9-1.1-2.3-1.7-3.9-1.7H208.9z"/>
			<path fill="#676767" d="M222.7,56.1l1.7-0.2l7.1-20.2h4.8l7,20.2l1.7,0.2v2.8h-7.9v-2.8l1.6-0.3l-1-3.2H230l-1,3.2l1.6,0.3v2.8
				h-7.9V56.1z M231.1,49.2h5.3l-2.6-8.2h-0.1L231.1,49.2z"/>
			<path fill="#676767" d="M102.2,77.8c2,0,3-0.7,3-2c0-0.5-0.4-1-1.1-1.3c-0.3-0.1-0.7-0.3-1.1-0.4c-0.4-0.1-0.9-0.2-1.3-0.3
				s-0.9-0.3-1.3-0.4c-0.4-0.2-0.8-0.4-1.2-0.6c-0.7-0.6-1.1-1.3-1.1-2.2c0-1,0.4-1.8,1.1-2.5c0.8-0.7,1.9-1,3.3-1
				c1.2,0,2.4,0.2,3.4,0.6c0.3,0.1,0.5,0.3,0.5,0.7c0,0.2-0.1,0.3-0.2,0.5s-0.2,0.2-0.4,0.2c-0.1,0-0.3,0-0.6-0.1
				c-0.7-0.3-1.6-0.4-2.5-0.4c-0.9,0-1.6,0.2-2.2,0.5c-0.6,0.3-0.9,0.8-0.9,1.4c0,0.6,0.4,1.1,1.1,1.5c0.3,0.2,0.7,0.3,1.2,0.4
				c0.4,0.1,0.9,0.2,1.3,0.3s0.9,0.2,1.3,0.4c0.4,0.2,0.8,0.4,1.2,0.6c0.7,0.5,1.1,1.3,1.1,2.3c0,1-0.4,1.8-1.2,2.4
				c-0.8,0.6-1.9,0.9-3.2,0.9c-1.4,0-2.8-0.3-4-0.8c-0.1-0.1-0.2-0.1-0.3-0.3c-0.1-0.1-0.1-0.3-0.1-0.5c0-0.2,0.1-0.3,0.2-0.5
				c0.1-0.1,0.3-0.2,0.4-0.2c0.2,0,0.4,0.1,0.6,0.2c0.2,0.1,0.6,0.2,1.2,0.4C100.8,77.7,101.4,77.8,102.2,77.8z"/>
			<path fill="#676767" d="M119.3,77c0.1,0,0.2-0.1,0.4-0.1c0.2,0,0.3,0.1,0.4,0.2c0.1,0.1,0.2,0.3,0.2,0.5c0,0.3-0.1,0.5-0.4,0.6
				c-0.5,0.3-1.1,0.5-1.7,0.7c-0.6,0.2-1.3,0.3-2.2,0.3c-0.8,0-1.6-0.1-2.4-0.4c-0.7-0.3-1.4-0.7-1.9-1.2c-1.1-1.1-1.7-2.6-1.7-4.5
				s0.6-3.4,1.7-4.5c1.1-1.1,2.5-1.6,4.3-1.6c0.8,0,1.6,0.1,2.2,0.3c0.6,0.2,1.1,0.4,1.4,0.6s0.5,0.3,0.6,0.4
				c0.1,0.1,0.1,0.2,0.1,0.4c0,0.2-0.1,0.3-0.2,0.4c-0.1,0.1-0.3,0.2-0.4,0.2c-0.2,0-0.3,0-0.4-0.1c-0.5-0.2-0.9-0.4-1.4-0.6
				s-1.1-0.2-1.8-0.2s-1.4,0.1-1.9,0.4c-0.6,0.2-1.1,0.6-1.4,1c-0.8,0.8-1.1,1.9-1.1,3.3s0.4,2.5,1.1,3.3c0.8,0.9,2,1.3,3.4,1.3
				c0.7,0,1.2-0.1,1.7-0.2S118.8,77.2,119.3,77z"/>
			<path fill="#676767" d="M133.1,67.1c0.2,0,0.4,0.1,0.6,0.2c0.2,0.2,0.2,0.3,0.2,0.6v10.5c0,0.2-0.1,0.4-0.2,0.5
				c-0.2,0.1-0.3,0.2-0.6,0.2s-0.4-0.1-0.5-0.2c-0.1-0.1-0.2-0.3-0.2-0.5v-4.5h-6.5v4.5c0,0.2-0.1,0.4-0.2,0.5s-0.3,0.2-0.6,0.2
				c-0.2,0-0.4-0.1-0.5-0.2s-0.2-0.3-0.2-0.5V67.9c0-0.2,0.1-0.4,0.2-0.6c0.1-0.2,0.3-0.2,0.5-0.2c0.2,0,0.4,0.1,0.6,0.2
				c0.2,0.2,0.2,0.3,0.2,0.6v4.5h6.5v-4.5c0-0.2,0.1-0.4,0.2-0.6C132.7,67.2,132.9,67.1,133.1,67.1z"/>
			<path fill="#676767" d="M144.2,67c1.8,0,3.2,0.6,4.3,1.7c1.1,1.1,1.6,2.6,1.7,4.4c0,1.8-0.6,3.3-1.7,4.4
				c-1.1,1.1-2.5,1.7-4.3,1.7c-1.8,0-3.2-0.6-4.3-1.7c-1.1-1.1-1.6-2.6-1.7-4.4c0-1.8,0.6-3.3,1.7-4.4C140.9,67.6,142.3,67,144.2,67
				z M144.2,77.8c1.4,0,2.5-0.4,3.3-1.3c0.8-0.9,1.2-2,1.2-3.3c0-1.3-0.4-2.5-1.2-3.3c-0.8-0.9-1.9-1.3-3.3-1.3
				c-1.4,0-2.5,0.4-3.3,1.3c-0.8,0.9-1.2,2-1.2,3.3c0,1.4,0.4,2.5,1.2,3.3C141.7,77.3,142.8,77.8,144.2,77.8z"/>
			<path fill="#676767" d="M159.7,67c1.8,0,3.2,0.6,4.3,1.7c1.1,1.1,1.6,2.6,1.7,4.4c0,1.8-0.6,3.3-1.7,4.4
				c-1.1,1.1-2.5,1.7-4.3,1.7c-1.8,0-3.2-0.6-4.3-1.7c-1.1-1.1-1.6-2.6-1.7-4.4c0-1.8,0.6-3.3,1.7-4.4C156.4,67.6,157.9,67,159.7,67
				z M159.7,77.8c1.4,0,2.5-0.4,3.3-1.3c0.8-0.9,1.2-2,1.2-3.3c0-1.3-0.4-2.5-1.2-3.3c-0.8-0.9-1.9-1.3-3.3-1.3
				c-1.4,0-2.5,0.4-3.3,1.3c-0.8,0.9-1.2,2-1.2,3.3c0,1.4,0.4,2.5,1.2,3.3C157.2,77.3,158.3,77.8,159.7,77.8z"/>
			<path fill="#676767" d="M177.6,77.8c0.2,0.2,0.2,0.3,0.2,0.6s-0.1,0.4-0.2,0.5s-0.3,0.2-0.6,0.2h-6c-0.3,0-0.5-0.1-0.8-0.3
				s-0.3-0.5-0.3-0.8V67.9c0-0.2,0.1-0.4,0.2-0.6c0.1-0.2,0.3-0.2,0.5-0.2c0.2,0,0.4,0.1,0.6,0.2c0.2,0.2,0.2,0.3,0.2,0.6v9.6h5.6
				C177.2,77.5,177.4,77.6,177.6,77.8z"/>
		</g>
	</g>
</g>
<g>
	<path fill="#00A7B9" d="M198.1,67c1.4,0,2.5,0.3,3.3,0.8c0.8,0.6,1.2,1.4,1.2,2.5c0,0.6-0.1,1.1-0.4,1.5c-0.3,0.4-0.7,0.8-1.3,1
		c0.7,0.2,1.3,0.5,1.6,1s0.5,1.1,0.5,1.8c0,1.2-0.4,2-1.1,2.6c-0.8,0.6-1.8,0.9-3.2,0.9h-5.9v-1.5l1.3-0.2v-8.7l-1.3-0.2V67h1.3
		H198.1z M196.4,72.1h1.7c0.6,0,1.1-0.1,1.5-0.4s0.5-0.7,0.5-1.2c0-0.6-0.2-1-0.5-1.2c-0.4-0.3-0.9-0.4-1.6-0.4h-1.7V72.1z
		 M196.4,73.7v3.5h2.2c0.6,0,1.1-0.1,1.5-0.4c0.3-0.3,0.5-0.7,0.5-1.2c0-0.6-0.1-1-0.4-1.4c-0.3-0.3-0.7-0.5-1.4-0.5H196.4z"/>
	<path fill="#00A7B9" d="M213.4,73.8h-4.1v3.4h3.9l0.1-1.4h1.8v3.3h-9.5v-1.5l1.3-0.2v-8.7l-1.3-0.2V67h1.3h8.2v3.3h-1.9l-0.1-1.4
		h-3.9v3h4.1V73.8z"/>
	<path fill="#00A7B9" d="M228.9,67v3.2h-1.9l-0.1-1.4h-2.2v8.5l1.3,0.2v1.5h-5v-1.5l1.3-0.2v-8.5h-2.2l-0.1,1.4h-1.8V67H228.9z"/>
	<path fill="#00A7B9" d="M229.8,77.6l0.9-0.1l3.7-10.5h2.5l3.6,10.5l0.9,0.1v1.5h-4.1v-1.5l0.8-0.1l-0.5-1.7h-3.9l-0.5,1.7l0.8,0.1
		v1.5h-4.1V77.6z M234.2,74h2.8l-1.4-4.3h0L234.2,74z"/>
</g>
<rect x="182" y="72.2" fill="#C6C6C5" width="5.6" height="1.5"/>
</svg>
