<svg id="Layer_1" data-name="Layer 1" xmlns="http://www.w3.org/2000/svg" viewBox="0 0 231.31 67.63"><path class="cls-1" d="M70.75,38.11a3,3,0,0,0-2.26-1h-2.6V32.95a1,1,0,0,0-1-1H53.41a7.23,7.23,0,0,0-5.71-7.88V20.17H55l-3.32,4H60V18.87a1.7,1.7,0,0,0-1.7-1.7H55V14.91a1.7,1.7,0,0,0-1.7-1.7H44.93V24A7.23,7.23,0,0,0,39,31.95H27.52a1,1,0,0,0-1,1v4.13h-2.6a3,3,0,0,0-2.31,1.09l-5.9,7.94a1,1,0,0,0,.8,1.6h2.16V68.3H17.09a1,1,0,1,0,0,2H30.82v5.52a5,5,0,0,0,5,5H56.56a5,5,0,0,0,5-5V70.3H75.32a1,1,0,0,0,0-2H73.74V47.7H75.9a1,1,0,0,0,.8-1.6ZM55,19.94l0,.21,0,0ZM26.52,60.09H24.75a.7.7,0,0,1-.7-.7v-3a.7.7,0,0,1,.7-.7h1.77Zm0-6.43H24.75a2.7,2.7,0,0,0-2.7,2.7v3a2.7,2.7,0,0,0,2.7,2.7h1.77V68.3H20.66V47.7h5.85Zm0-8h-8l4.67-6.28a1,1,0,0,1,.75-.34h2.6ZM46.2,25.91a5.25,5.25,0,1,1-5.25,5.25A5.26,5.26,0,0,1,46.2,25.91ZM32.46,56.09v-3a.7.7,0,0,1,.7-.7H36a.7.7,0,0,1,.7.7v2.7h-.9a5,5,0,0,0-2.95,1A.7.7,0,0,1,32.46,56.09ZM59.58,75.82a3,3,0,0,1-3,3H35.84a3,3,0,0,1-3-3v-15a3,3,0,0,1,3-3H56.56a3,3,0,0,1,3,3ZM44.06,55.76v-2.7a.7.7,0,0,1,.7-.7h2.89a.7.7,0,0,1,.7.7v2.7Zm15.54.33a.69.69,0,0,1-.25.52,5,5,0,0,0-2.79-.85H55.32v-2.7a.7.7,0,0,1,.7-.7H58.9a.7.7,0,0,1,.7.7Zm4.29-9.38V68.3H61.58V60.78A5,5,0,0,0,60.76,58a2.7,2.7,0,0,0,.85-2v-3a2.7,2.7,0,0,0-2.7-2.7H56a2.7,2.7,0,0,0-2.7,2.7v2.7h-3v-2.7a2.7,2.7,0,0,0-2.7-2.7H44.76a2.7,2.7,0,0,0-2.7,2.7v2.7H38.75v-2.7a2.7,2.7,0,0,0-2.7-2.7H33.16a2.7,2.7,0,0,0-2.7,2.7v3a2.69,2.69,0,0,0,1.08,2.15,5,5,0,0,0-.72,2.54V68.3H28.52V33.95h11a7.25,7.25,0,0,0,13.39,0h11Zm2,9h1.77a.7.7,0,0,1,.7.7v3a.7.7,0,0,1-.7.7H65.89ZM71.74,68.3H65.89V62.09h1.77a2.7,2.7,0,0,0,2.7-2.7v-3a2.7,2.7,0,0,0-2.7-2.7H65.89v-6h5.85Zm1-22.6H65.89V39.08h2.6a1,1,0,0,1,.71.28l4.71,6.34Z" transform="translate(-15.51 -13.21)"/><path class="cls-1" d="M36,39.1H33.16a2.7,2.7,0,0,0-2.7,2.7v3a2.7,2.7,0,0,0,2.7,2.7H36a2.7,2.7,0,0,0,2.7-2.7v-3A2.7,2.7,0,0,0,36,39.1Zm.7,5.73a.7.7,0,0,1-.7.7H33.16a.7.7,0,0,1-.7-.7v-3a.7.7,0,0,1,.7-.7H36a.7.7,0,0,1,.7.7Z" transform="translate(-15.51 -13.21)"/><path class="cls-1" d="M56,47.53H58.9a2.7,2.7,0,0,0,2.7-2.7v-3a2.7,2.7,0,0,0-2.7-2.7H56a2.7,2.7,0,0,0-2.7,2.7v3A2.7,2.7,0,0,0,56,47.53Zm-.7-5.73a.7.7,0,0,1,.7-.7H58.9a.7.7,0,0,1,.7.7v3a.7.7,0,0,1-.7.7H56a.7.7,0,0,1-.7-.7Z" transform="translate(-15.51 -13.21)"/><path class="cls-1" d="M47.65,39.1H44.76a2.7,2.7,0,0,0-2.7,2.7v3a2.7,2.7,0,0,0,2.7,2.7h2.89a2.7,2.7,0,0,0,2.7-2.7v-3A2.7,2.7,0,0,0,47.65,39.1Zm.7,5.73a.7.7,0,0,1-.7.7H44.76a.7.7,0,0,1-.7-.7v-3a.7.7,0,0,1,.7-.7h2.89a.7.7,0,0,1,.7.7Z" transform="translate(-15.51 -13.21)"/><rect class="cls-1" x="23.68" y="52.49" width="3.6" height="9.41" rx="0.49" ry="0.49"/><rect class="cls-1" x="34.12" y="52.49" width="3.6" height="9.41" rx="0.49" ry="0.49"/><rect class="cls-1" x="28.91" y="48.66" width="3.6" height="13.25" rx="0.49" ry="0.49"/><path class="cls-1" d="M45.76,31.78a.51.51,0,0,0,.66.3l.27-.1h0l1.84-.7a.51.51,0,0,0,.3-.66l-.1-.27a.51.51,0,0,0-.66-.3l-1.36.52-.54-1.41a.51.51,0,0,0-.66-.3l-.27.1a.51.51,0,0,0-.3.66Z" transform="translate(-15.51 -13.21)"/><path class="cls-1" d="M99.34,27a.77.77,0,0,0,.55-.22.72.72,0,0,0,.23-.54V23.09l1.94-2,4.39,5.6A.68.68,0,0,0,107,27a.77.77,0,0,0,.57-.21.69.69,0,0,0,.21-.5.83.83,0,0,0-.19-.53l-4.51-5.68,3.93-3.91a.75.75,0,0,0,0-1,.74.74,0,0,0-.54-.2.69.69,0,0,0-.55.27l-5.82,5.92V15.77a.78.78,0,0,0-.78-.78.73.73,0,0,0-.54.23.77.77,0,0,0-.22.55v10.5a.76.76,0,0,0,.77.77Z" transform="translate(-15.51 -13.21)"/><path class="cls-1" d="M112.45,27a.77.77,0,0,0,.55-.22.72.72,0,0,0,.23-.54V17.07l6.59,9.51a1.07,1.07,0,0,0,.9.46h.2a1.1,1.1,0,0,0,.79-.32,1.05,1.05,0,0,0,.33-.78V15.77a.78.78,0,0,0-.78-.78.73.73,0,0,0-.54.23.77.77,0,0,0-.22.55V25l-6.55-9.46A1.18,1.18,0,0,0,113,15h-.22a1,1,0,0,0-.78.33,1.09,1.09,0,0,0-.32.79V26.27a.76.76,0,0,0,.77.77Z" transform="translate(-15.51 -13.21)"/><path class="cls-1" d="M132.31,27.13a5.69,5.69,0,0,0,4.32-1.72,6.67,6.67,0,0,0,0-8.78,6.3,6.3,0,0,0-8.65,0A6.24,6.24,0,0,0,126.33,21,6.24,6.24,0,0,0,128,25.41,5.65,5.65,0,0,0,132.31,27.13ZM129,17.7a4.64,4.64,0,0,1,6.54,0A4.79,4.79,0,0,1,136.73,21a4.79,4.79,0,0,1-1.16,3.32,4.64,4.64,0,0,1-6.54,0A4.79,4.79,0,0,1,127.88,21,4.79,4.79,0,0,1,129,17.7Z" transform="translate(-15.51 -13.21)"/><path class="cls-1" d="M144.73,26.27a1,1,0,0,0,1.63.55,1.05,1.05,0,0,0,.38-.55l2.74-8.68,2.74,8.68a1.06,1.06,0,0,0,.38.55,1,1,0,0,0,1.63-.55L157.56,16a1.58,1.58,0,0,0,.05-.42.58.58,0,0,0-.2-.43.81.81,0,0,0-1.31.42L153.24,25l-2.88-9.36a.86.86,0,0,0-.33-.47.94.94,0,0,0-1.11,0,.86.86,0,0,0-.33.47L145.72,25l-2.86-9.39a.77.77,0,0,0-.8-.61.71.71,0,0,0-.51.2.58.58,0,0,0-.2.43,1.62,1.62,0,0,0,.05.42Z" transform="translate(-15.51 -13.21)"/><path class="cls-1" d="M170.58,21.93v4.34a.73.73,0,0,0,.23.54.77.77,0,0,0,.55.22.75.75,0,0,0,.77-.77V21.93l4.08-5.7a1,1,0,0,0,.14-.51.73.73,0,0,0-.2-.51.76.76,0,0,0-.59-.22.75.75,0,0,0-.64.39l-3.56,5.17-3.56-5.17a.75.75,0,0,0-.64-.39.76.76,0,0,0-.59.22.73.73,0,0,0-.2.51,1,1,0,0,0,.14.51Z" transform="translate(-15.51 -13.21)"/><path class="cls-1" d="M184.95,27.13a5.69,5.69,0,0,0,4.32-1.72,6.67,6.67,0,0,0,0-8.78,6.3,6.3,0,0,0-8.65,0A6.24,6.24,0,0,0,179,21a6.24,6.24,0,0,0,1.65,4.39A5.65,5.65,0,0,0,184.95,27.13Zm-3.27-9.43a4.64,4.64,0,0,1,6.54,0A4.79,4.79,0,0,1,189.37,21a4.79,4.79,0,0,1-1.16,3.32,4.64,4.64,0,0,1-6.54,0A4.79,4.79,0,0,1,180.52,21,4.79,4.79,0,0,1,181.68,17.7Z" transform="translate(-15.51 -13.21)"/><path class="cls-1" d="M204.87,22.5V15.77a.78.78,0,0,0-.78-.78.73.73,0,0,0-.54.23.77.77,0,0,0-.22.55v6.77a2.94,2.94,0,0,1-1,2.38,3.76,3.76,0,0,1-4.59,0,2.94,2.94,0,0,1-1-2.38V15.77a.78.78,0,0,0-.78-.78.73.73,0,0,0-.54.23.77.77,0,0,0-.22.55V22.5A4.26,4.26,0,0,0,196.69,26a5.39,5.39,0,0,0,6.59,0A4.24,4.24,0,0,0,204.87,22.5Z" transform="translate(-15.51 -13.21)"/><path class="cls-1" d="M210.56,27a.77.77,0,0,0,.55-.22.72.72,0,0,0,.23-.54V22.33h3.52a2.52,2.52,0,0,1,1.5.38,2.64,2.64,0,0,1,.83,1,5,5,0,0,1,.31,2v.51a.73.73,0,0,0,.77.77.76.76,0,0,0,.56-.22.74.74,0,0,0,.22-.54v-.78a6.06,6.06,0,0,0-.36-2.11,2.61,2.61,0,0,0-1.77-1.77,3.15,3.15,0,0,0,1.68-1.24,3.31,3.31,0,0,0,.55-1.84A3.07,3.07,0,0,0,218,16.06a5.41,5.41,0,0,0-3.52-1h-4a.73.73,0,0,0-.54.23.77.77,0,0,0-.22.55V26.27a.76.76,0,0,0,.77.77Zm.78-10.5h3a4.54,4.54,0,0,1,2.59.58,1.79,1.79,0,0,1,.68,1.53,1.84,1.84,0,0,1-.88,1.65,4.22,4.22,0,0,1-2.31.56h-3.08Z" transform="translate(-15.51 -13.21)"/><polygon class="cls-1" points="89.44 36.02 97.57 36.02 97.57 32.43 89.44 32.43 89.44 26.04 97.01 26.04 97.22 28.81 100.79 28.81 100.79 22.45 82.31 22.45 82.31 25.26 84.78 25.74 84.78 42.39 82.31 42.87 82.31 45.66 91.92 45.66 91.92 42.87 89.44 42.39 89.44 36.02"/><polygon class="cls-1" points="117.78 42.09 111.23 42.09 111.23 25.74 113.72 25.26 113.72 22.45 111.23 22.45 106.58 22.45 104.11 22.45 104.11 25.26 106.58 25.74 106.58 42.39 104.11 42.87 104.11 45.66 121.56 45.66 121.56 39.17 118 39.17 117.78 42.09"/><path class="cls-1" d="M158.26,55.87a12.33,12.33,0,0,0,2.92-8.43v-.35a12.32,12.32,0,0,0-2.92-8.41,9.66,9.66,0,0,0-7.64-3.35A9.53,9.53,0,0,0,143,38.67a12.43,12.43,0,0,0-2.88,8.41v.35A12.4,12.4,0,0,0,143,55.87a10.37,10.37,0,0,0,15.23,0Zm-1.72-8.43a10.53,10.53,0,0,1-1.48,5.9,5,5,0,0,1-4.43,2.24,4.87,4.87,0,0,1-4.37-2.24,10.67,10.67,0,0,1-1.46-5.9v-.38a10.65,10.65,0,0,1,1.44-5.86A4.85,4.85,0,0,1,150.62,39,5,5,0,0,1,155,41.21a10.37,10.37,0,0,1,1.5,5.85Z" transform="translate(-15.51 -13.21)"/><path class="cls-1" d="M184,55.48a2,2,0,0,1-.3-1.19V53.11a6.37,6.37,0,0,0-.9-3.5,5,5,0,0,0-3-2,6.58,6.58,0,0,0,2.76-2.09,5,5,0,0,0,.94-3,6.06,6.06,0,0,0-2.25-5,9.63,9.63,0,0,0-6.2-1.81H164.68v2.81l2.47.48V55.6l-2.47.48v2.79h9.61V56.07l-2.49-.48V49.48h3.81a3.46,3.46,0,0,1,2.54,1,3.74,3.74,0,0,1,.9,2.65v1.32a5.13,5.13,0,0,0,.92,3.17,3.77,3.77,0,0,0,3.2,1.23h2.41v-2.8L185,56A1.35,1.35,0,0,1,184,55.48Zm-6.07-10.41a4.4,4.4,0,0,1-2.92.83H171.8V39.25h3.3a3.94,3.94,0,0,1,2.84.93,3.31,3.31,0,0,1,1,2.49A3,3,0,0,1,177.94,45.06Z" transform="translate(-15.51 -13.21)"/><polygon class="cls-1" points="173.23 25.26 175.71 25.74 175.71 42.39 173.23 42.87 173.23 45.66 182.84 45.66 182.84 42.87 180.35 42.39 180.35 25.74 182.84 25.26 182.84 22.45 173.23 22.45 173.23 25.26"/><path class="cls-1" d="M212.18,35.66H201.74v2.81l2.47.48V55.6l-2.47.48v2.79h10.44a9.6,9.6,0,0,0,7-2.7,9.33,9.33,0,0,0,2.76-7V45.35a9.36,9.36,0,0,0-2.76-7A9.57,9.57,0,0,0,212.18,35.66Zm5.1,13.53a6.64,6.64,0,0,1-1.42,4.42,4.85,4.85,0,0,1-3.92,1.69h-3.08v-16h3.08a4.85,4.85,0,0,1,3.92,1.69,6.59,6.59,0,0,1,1.42,4.38Z" transform="translate(-15.51 -13.21)"/><path class="cls-1" d="M245.16,55.84l-7-20.18h-4.76l-7.06,20.18-1.66.24v2.79h7.9V56.07L231,55.79l1-3.19h7.52l1,3.19-1.61.29v2.79h7.9V56.07Zm-12.08-6.66L235.7,41h.1l2.61,8.18Z" transform="translate(-15.51 -13.21)"/><path class="cls-1" d="M105.56,73.58a4.48,4.48,0,0,0-1.16-.6q-.65-.23-1.33-.4l-1.33-.32a5.93,5.93,0,0,1-1.16-.39,1.58,1.58,0,0,1-1.12-1.46,1.6,1.6,0,0,1,.87-1.45,4.26,4.26,0,0,1,2.16-.49,7.59,7.59,0,0,1,2.54.39,1.85,1.85,0,0,0,.59.14.5.5,0,0,0,.39-.23.78.78,0,0,0,.18-.49.66.66,0,0,0-.48-.68,9.78,9.78,0,0,0-3.39-.56,4.91,4.91,0,0,0-3.28,1,3.07,3.07,0,0,0-1.12,2.45A2.68,2.68,0,0,0,99,72.76a4.59,4.59,0,0,0,1.17.61q.65.24,1.33.43l1.33.35a8.16,8.16,0,0,1,1.15.37q1.14.49,1.14,1.31,0,2-3,2a7.6,7.6,0,0,1-1.94-.22,8.86,8.86,0,0,1-1.2-.38,1.59,1.59,0,0,0-.61-.16.56.56,0,0,0-.43.21.7.7,0,0,0-.19.48.71.71,0,0,0,.14.45.87.87,0,0,0,.33.27,10.09,10.09,0,0,0,4,.82,5.05,5.05,0,0,0,3.18-.94,2.89,2.89,0,0,0,1.17-2.38A2.73,2.73,0,0,0,105.56,73.58Z" transform="translate(-15.51 -13.21)"/><path class="cls-1" d="M114.19,68.86a5,5,0,0,1,1.92-.36,6.1,6.1,0,0,1,1.78.22,8.24,8.24,0,0,1,1.4.58.87.87,0,0,0,.38.07.56.56,0,0,0,.43-.2.64.64,0,0,0,.18-.44.75.75,0,0,0-.1-.41,1.75,1.75,0,0,0-.59-.42,9.16,9.16,0,0,0-1.4-.57A6.83,6.83,0,0,0,116,67a5.79,5.79,0,0,0-4.25,1.63,6.74,6.74,0,0,0,0,9,5.33,5.33,0,0,0,1.89,1.22,6.55,6.55,0,0,0,2.36.42,6.86,6.86,0,0,0,2.18-.31,10.35,10.35,0,0,0,1.71-.75.66.66,0,0,0,.37-.65.65.65,0,0,0-.18-.45.56.56,0,0,0-.43-.2.88.88,0,0,0-.38.07,8.24,8.24,0,0,1-1.4.58,5.86,5.86,0,0,1-1.72.22,4.43,4.43,0,0,1-3.42-1.34,5.3,5.3,0,0,1,0-6.57A4,4,0,0,1,114.19,68.86Z" transform="translate(-15.51 -13.21)"/><path class="cls-1" d="M133.11,67.11a.73.73,0,0,0-.54.23.77.77,0,0,0-.22.55v4.53h-6.45V67.89a.78.78,0,0,0-.78-.78.73.73,0,0,0-.54.23.77.77,0,0,0-.22.55v10.5a.76.76,0,0,0,.77.77.77.77,0,0,0,.55-.22.73.73,0,0,0,.23-.54V73.87h6.45v4.53a.76.76,0,0,0,.77.77.77.77,0,0,0,.55-.22.73.73,0,0,0,.23-.54V67.89a.78.78,0,0,0-.78-.78Z" transform="translate(-15.51 -13.21)"/><path class="cls-1" d="M144.15,67a5.65,5.65,0,0,0-4.32,1.72,6.66,6.66,0,0,0,0,8.78,6.29,6.29,0,0,0,8.65,0,6.67,6.67,0,0,0,0-8.78A5.69,5.69,0,0,0,144.15,67Zm3.27,9.43a4.64,4.64,0,0,1-6.54,0,5.34,5.34,0,0,1,0-6.64,4.64,4.64,0,0,1,6.54,0,5.34,5.34,0,0,1,0,6.64Z" transform="translate(-15.51 -13.21)"/><path class="cls-1" d="M159.66,67a5.65,5.65,0,0,0-4.32,1.72,6.66,6.66,0,0,0,0,8.78,6.29,6.29,0,0,0,8.65,0,6.67,6.67,0,0,0,0-8.78A5.69,5.69,0,0,0,159.66,67Zm3.27,9.43a4.64,4.64,0,0,1-6.54,0,5.34,5.34,0,0,1,0-6.64,4.64,4.64,0,0,1,6.54,0,5.34,5.34,0,0,1,0,6.64Z" transform="translate(-15.51 -13.21)"/><path class="cls-1" d="M177,77.52h-5.57V67.89a.78.78,0,0,0-.78-.78.73.73,0,0,0-.54.23.77.77,0,0,0-.22.55V78A1.08,1.08,0,0,0,171,79.07h6a.77.77,0,0,0,.55-.22.73.73,0,0,0,.23-.54.79.79,0,0,0-.78-.78Z" transform="translate(-15.51 -13.21)"/></svg>