<svg id="Layer_1" data-name="Layer 1" xmlns="http://www.w3.org/2000/svg" viewBox="0 0 45.41 48.2"><path class="cls-1" d="M5,0H40.41a5,5,0,0,1,5,5V48.2a0,0,0,0,1,0,0H0a0,0,0,0,1,0,0V5A5,5,0,0,1,5,0Z"/><path class="cls-2" d="M24.27,18.15a3.08,3.08,0,0,0-2.35,3h0a3.08,3.08,0,1,0,6.16,0h0a3.07,3.07,0,0,0-2.22-2.94,2.78,2.78,0,0,0-1.59,0ZM26,20a.45.45,0,0,1,.64.64l-.52.52L25,22.29a.45.45,0,0,1-.64,0l-1.06-1.06a.44.44,0,0,1-.07-.1.44.44,0,0,1,.06-.54.45.45,0,0,1,.64,0l.54.54.2.2.2-.2Z" transform="translate(-2.29 -1.8)"/><polygon class="cls-3" points="27.73 11.43 27.72 11.3 27.72 11.44 27.73 11.43"/><polygon class="cls-3" points="27.72 11.44 27.72 11.44 27.72 11.44 27.72 11.44"/><polygon class="cls-3" points="27.72 11.44 27.72 11.3 27.72 11.44 27.72 11.44"/><path class="cls-2" d="M25.85,32.7H24.15a1,1,0,0,0-1,1v5.93h3.6V33.65A1,1,0,0,0,25.85,32.7Z" transform="translate(-2.29 -1.8)"/><rect class="cls-2" x="14.26" y="24.45" width="3.6" height="3.68" rx="0.63" ry="0.63"/><rect class="cls-2" x="14.26" y="30.9" width="3.6" height="3.68" rx="0.63" ry="0.63"/><rect class="cls-2" x="20.91" y="24.45" width="3.6" height="3.68" rx="0.63" ry="0.63"/><rect class="cls-2" x="27.35" y="30.9" width="3.6" height="3.68" rx="0.63" ry="0.63"/><rect class="cls-2" x="27.35" y="24.45" width="3.6" height="3.68" rx="0.63" ry="0.63"/><path class="cls-3" d="M40.22,39.59H35.7V22.4a1.27,1.27,0,0,0-1.27-1.27H29.08a4.08,4.08,0,0,0-3.22-4V13.24H30l-1.85,2.21a1.41,1.41,0,0,0,.4.06h4.32V12.3a.78.78,0,0,0-.78-.78H30V10a.78.78,0,0,0-.78-.78h-5v4h0v3.89a4.08,4.08,0,0,0-3.35,4H15.57A1.27,1.27,0,0,0,14.3,22.4V39.59H9.78a.91.91,0,1,0,0,1.75H40.22a.91.91,0,1,0,0-1.75ZM20.16,35.75a.63.63,0,0,1-.63.63H17.18a.63.63,0,0,1-.63-.63V33.32a.63.63,0,0,1,.63-.63h2.35a.63.63,0,0,1,.63.63Zm0-6.45a.63.63,0,0,1-.63.63H17.18a.63.63,0,0,1-.63-.63V26.88a.63.63,0,0,1,.63-.63h2.35a.63.63,0,0,1,.63.63ZM26.8,39.59H23.2V33.65a1,1,0,0,1,1-1h1.69a1,1,0,0,1,1,1Zm0-10.28a.63.63,0,0,1-.63.63H23.83a.63.63,0,0,1-.63-.63V26.88a.63.63,0,0,1,.63-.63h2.35a.63.63,0,0,1,.63.63Zm1.28-8.17a3.08,3.08,0,1,1-6.16,0h0A3.12,3.12,0,0,1,25,18.05a3,3,0,0,1,.86.14,3.07,3.07,0,0,1,2.22,2.94Zm5.17,14.62a.63.63,0,0,1-.63.63H30.27a.63.63,0,0,1-.63-.63V33.32a.63.63,0,0,1,.63-.63h2.35a.63.63,0,0,1,.63.63Zm0-6.45a.63.63,0,0,1-.63.63H30.27a.63.63,0,0,1-.63-.63V26.88a.63.63,0,0,1,.63-.63h2.35a.63.63,0,0,1,.63.63Z" transform="translate(-2.29 -1.8)"/><path class="cls-3" d="M26,20l-1.15,1.15-.2.2-.2-.2L24,20.59a.45.45,0,0,0-.64,0,.44.44,0,0,0-.06.54.44.44,0,0,0,.07.1l1.06,1.06a.45.45,0,0,0,.64,0l1.15-1.15.52-.52A.45.45,0,0,0,26,20Z" transform="translate(-2.29 -1.8)"/></svg>